<svg xmlns="http://www.w3.org/2000/svg" viewBox="0 0 461.24 189.29"><g id="Capa_2" data-name="Capa 2"><g id="Capa_1-2" data-name="Capa 1"><path d="M52.8,99.76c0-11.46,7.55-18.52,15.69-18.52,4.11,0,7.2,1.59,10.12,4.3h.17l-.34-6.18V66.24h7.18v51.05H79.75l-.57-4.37H79c-2.81,2.86-6.87,5.23-11,5.23C58.82,118.15,52.8,111.42,52.8,99.76Zm25.64,7.71V90.82a11.78,11.78,0,0,0-8.32-3.6c-5.49,0-10,4.77-10,12.45,0,8,3.55,12.5,9.42,12.5C72.75,112.17,75.67,110.66,78.44,107.47Z"/><path d="M92.69,108c0-7.89,7.16-11.77,24.92-13.1-.25-4.35-2.58-7.85-8.84-7.85-4.26,0-8.45,2-11.89,4l-2.74-4.78c4-2.44,9.8-5,15.91-5,9.69,0,14.74,5.57,14.74,14.86v21.19h-5.93l-.57-4.57h-.23c-3.76,3-8.65,5.43-13.47,5.43C97.86,118.15,92.69,114.2,92.69,108Zm24.92-.27V99.49c-13.82,1-17.91,3.77-17.91,8,0,3.53,3.17,5,6.93,5S114,110.69,117.61,107.73Z"/><path d="M139.19,103.37V87.83H129.5V82.48l10-.37L140.42,71h6V82.11H163v5.72h-16.6v15.56c0,6,2.14,9,8.5,9a22.51,22.51,0,0,0,8-1.5l1.46,5.24a32.71,32.71,0,0,1-11.14,2C142.69,118.15,139.19,112.2,139.19,103.37Z"/><path d="M168.9,108c0-7.89,7.16-11.77,24.92-13.1-.25-4.35-2.58-7.85-8.84-7.85-4.26,0-8.45,2-11.89,4l-2.74-4.78c4-2.44,9.8-5,15.91-5C196,81.24,201,86.81,201,96.1v21.19h-5.93l-.57-4.57h-.23c-3.76,3-8.65,5.43-13.47,5.43C174.08,118.15,168.9,114.2,168.9,108Zm24.92-.27V99.49c-13.82,1-17.91,3.77-17.91,8,0,3.53,3.17,5,6.93,5S190.18,110.69,193.82,107.73Z"/><path d="M206.73,99.29c0-12,9.94-18.87,21.1-18.87,5.62,0,10.59,1.87,13.61,4.75l-5.61,7.64a12.56,12.56,0,0,0-7.28-2.45c-5.4,0-9.14,3.45-9.14,8.93s3.67,8.93,8.71,8.93c3.53,0,6.41-1.52,8.86-3l4.89,7.78a24.1,24.1,0,0,1-15,5.18C215.52,118.15,206.73,111.24,206.73,99.29Z"/><path d="M246.2,81.29h10.16l.93,7.63h.29c3.46-5.91,8.64-8.5,14-8.5a14.66,14.66,0,0,1,6.84,1.44L276,92.23a19.08,19.08,0,0,0-6.27-1c-4.1,0-8.5,2.16-11.16,8.21v17.86H246.2Z"/><path d="M296.31,90.93H282.63V81.29h26.06v36H296.31ZM296,71.06,307.4,57.52l8.35,8.21L302.07,77.11Z"/><path d="M322.88,102V90.93h-8.64V81.72l9.21-.43L325,70.48h10.22V81.29h14.26v9.64H335.26v10.88c0,5.11,2.38,6.69,7,6.69a20.44,20.44,0,0,0,6.55-1.15l2.16,8.93A43.14,43.14,0,0,1,339,118.15C327.2,118.15,322.88,111.67,322.88,102Z"/><path d="M368.41,90.93H354.73V81.29h26.06v36H368.41Zm-2.16-21.74c0-4.32,3.31-7.35,7.92-7.35s7.92,3,7.92,7.35-3.31,7.2-7.92,7.2S366.25,73.51,366.25,69.19Z"/><path d="M387.93,99.29c0-12,9.94-18.87,21.1-18.87,5.62,0,10.59,1.87,13.61,4.75L417,92.81a12.51,12.51,0,0,0-7.27-2.45c-5.4,0-9.14,3.45-9.14,8.93s3.67,8.93,8.71,8.93c3.53,0,6.41-1.52,8.86-3l4.89,7.78a24.1,24.1,0,0,1-15,5.18C396.72,118.15,387.93,111.24,387.93,99.29Z"/><path d="M426.1,107.06c0-8.06,6.34-12.24,22.75-13.1-.43-2.59-2.88-3.75-6.91-3.75-3,0-6.05,1-10.37,3l-4.32-8.07a35,35,0,0,1,17.14-4.75c10.22,0,16.85,5,16.85,16.85v20H451.16l-.87-3.75H450c-3.53,2.6-7.78,4.61-12.24,4.61C430.28,118.15,426.1,113,426.1,107.06Zm22.75-1.15V101.3c-8.78.29-10.94,2.31-10.94,4.76,0,1.65,1.29,2.59,3.89,2.59A11.64,11.64,0,0,0,448.85,105.91Z"/><circle cx="146.27" cy="29.57" r="3.27"/><circle cx="135.54" cy="26.48" r="2.94"/><circle cx="137.05" cy="14.58" r="3.59"/><circle cx="146.93" cy="18.26" r="1.96"/><circle cx="152.74" cy="41.69" r="5.56"/><circle cx="139.9" cy="37.05" r="1.96"/><circle cx="124.38" cy="22.05" r="3.38"/><circle cx="116.96" cy="13.17" r="3.05"/><circle cx="125.17" cy="3.84" r="3.72"/><circle cx="131.52" cy="12.73" r="2.03"/><circle cx="122.89" cy="36.2" r="5.75"/><circle cx="114.57" cy="24.77" r="2.03"/><circle cx="102" cy="18.94" r="3.29"/><circle cx="91.26" cy="15.58" r="2.96"/><circle cx="93.05" cy="3.62" r="3.62"/><circle cx="102.93" cy="7.55" r="1.98"/><circle cx="108.24" cy="31.3" r="5.6"/><circle cx="95.42" cy="26.33" r="1.98"/><circle cx="78.66" cy="21.09" r="3.21"/><circle cx="71.85" cy="12.48" r="2.89"/><circle cx="79.87" cy="3.83" r="3.53"/><circle cx="85.67" cy="12.43" r="1.93"/><circle cx="76.89" cy="34.48" r="5.46"/><circle cx="69.29" cy="23.42" r="1.93"/><circle cx="56.38" cy="28.36" r="3.34"/><circle cx="53.19" cy="17.38" r="3.01"/><circle cx="64.32" cy="12.19" r="3.68"/><circle cx="66.53" cy="22.76" r="2.01"/><circle cx="49.41" cy="40.57" r="5.68"/><circle cx="46.43" cy="26.93" r="2.01"/><circle cx="38.41" cy="40.77" r="3.41"/><circle cx="26.77" cy="40.21" r="3.07"/><circle cx="25.46" cy="27.75" r="3.75"/><circle cx="36.39" cy="29.12" r="2.05"/><circle cx="47.88" cy="51.55" r="5.8"/><circle cx="33.73" cy="49.9" r="2.05"/><circle cx="24.49" cy="58.51" r="3.29"/><circle cx="14.29" cy="63.22" r="2.96"/><circle cx="7.61" cy="53.17" r="3.62"/><circle cx="17.56" cy="49.46" r="1.97"/><circle cx="37.38" cy="63.48" r="5.59"/><circle cx="24.56" cy="68.39" r="1.97"/><circle cx="16.28" cy="81.37" r="3.56"/><circle cx="12.17" cy="69.91" r="3.2"/><circle cx="23.65" cy="63.67" r="3.92"/><circle cx="26.7" cy="74.75" r="2.14"/><circle cx="9.68" cy="94.8" r="6.05"/><circle cx="5.61" cy="80.5" r="2.14"/><circle cx="15.55" cy="103.32" r="3.38"/><circle cx="4.1" cy="101.91" r="3.04"/><circle cx="3.72" cy="89.52" r="3.71"/><circle cx="14.4" cy="91.67" r="2.03"/><circle cx="24.11" cy="114.65" r="5.74"/><circle cx="10.26" cy="111.99" r="2.03"/><circle cx="19.13" cy="126.32" r="3.3"/><circle cx="14.94" cy="115.84" r="2.97"/><circle cx="25.38" cy="109.67" r="3.63"/><circle cx="28.57" cy="119.84" r="1.98"/><circle cx="13.46" cy="138.99" r="5.61"/><circle cx="9.22" cy="125.87" r="1.98"/><circle cx="30.42" cy="146.14" r="3.25"/><circle cx="23.95" cy="137.11" r="2.93"/><circle cx="32.48" cy="128.76" r="3.58"/><circle cx="37.92" cy="137.73" r="1.95"/><circle cx="27.97" cy="159.59" r="5.53"/><circle cx="20.83" cy="148.05" r="1.95"/><circle cx="47.85" cy="160.74" r="3.13"/><circle cx="37.19" cy="161.72" r="2.82"/><circle cx="34.39" cy="150.57" r="3.44"/><circle cx="44.5" cy="150.41" r="1.88"/><circle cx="57.84" cy="169.31" r="5.32"/><circle cx="44.77" cy="169.63" r="1.88"/><circle cx="68.52" cy="170.67" r="3.17"/><circle cx="57.92" cy="172.93" r="2.85"/><circle cx="53.77" cy="162.05" r="3.49"/><circle cx="63.91" cy="160.68" r="1.9"/><circle cx="79.6" cy="178.09" r="5.39"/><circle cx="66.48" cy="179.98" r="1.9"/><circle cx="91.02" cy="174.86" r="3.31"/><circle cx="82.24" cy="182" r="2.98"/><circle cx="73.22" cy="173.84" r="3.64"/><circle cx="82" cy="167.76" r="1.99"/><circle cx="104.85" cy="176.51" r="5.63"/><circle cx="93.55" cy="184.49" r="1.99"/><circle cx="114.08" cy="174.11" r="3.3"/><circle cx="102.79" cy="174.59" r="2.97"/><circle cx="100.44" cy="162.69" r="3.63"/><circle cx="111.1" cy="163.05" r="1.98"/><circle cx="124.15" cy="183.67" r="5.62"/><circle cx="110.36" cy="183.32" r="1.98"/><circle cx="135.65" cy="168.95" r="3.16"/><circle cx="127.58" cy="161.8" r="2.84"/><circle cx="133.84" cy="152.06" r="3.47"/><circle cx="140.93" cy="159.37" r="1.89"/><circle cx="136.25" cy="182.2" r="5.36"/><circle cx="126.99" cy="172.83" r="1.89"/><circle cx="157.2" cy="158.58" r="3.56"/><circle cx="146.38" cy="164.11" r="3.2"/><circle cx="138.73" cy="153.54" r="3.91"/><circle cx="149.32" cy="149.1" r="2.13"/><circle cx="171.35" cy="163.4" r="6.04"/><circle cx="157.71" cy="169.26" r="2.13"/></g></g></svg>